<?xml version="1.0" encoding="UTF-8"?>
<svg id="Layer_1" data-name="Layer 1" xmlns="http://www.w3.org/2000/svg" version="1.1" viewBox="0 0 17 17">
  <defs>
    <style>
      .cls-1, .cls-2, .cls-3, .cls-4 {
        stroke-width: 0px;
      }

      .cls-1, .cls-5 {
        opacity: .4;
      }

      .cls-1, .cls-3 {
        isolation: isolate;
      }

      .cls-1, .cls-4 {
        fill: #231f20;
      }

      .cls-2 {
        fill: #b8292f;
      }

      .cls-3 {
        fill: #fff;
        opacity: .3;
      }
    </style>
  </defs>
  <circle class="cls-3" cx="8.5" cy="8.5" r="8.5"/>
  <circle class="cls-2" cx="8.5" cy="8.5" r="1.5"/>
  <path class="cls-1" d="M8.5,0C3.8,0,0,3.8,0,8.5s3.8,8.5,8.5,8.5,8.5-3.8,8.5-8.5S13.2,0,8.5,0ZM9.1,16.4l-.6-1.9-.6,1.9c-4-.3-7.1-3.4-7.4-7.4l1.8-.6-1.9-.6C.8,4,4,.8,7.9.6l.6,1.9.6-1.8c3.9.3,7.1,3.4,7.4,7.4l-1.9.6,1.9.6c-.3,4-3.4,7.1-7.4,7.4Z"/>
  <g class="cls-5">
    <polygon class="cls-4" points="7 7.3 6.2 6.6 6.5 6.3 7 7.3"/>
    <polyline class="cls-4" points="5.9 6.9 7 7.3 6.2 6.6"/>
  </g>
  <g class="cls-5">
    <polygon class="cls-4" points="10.1 7.3 10.8 6.6 10.5 6.3 10.1 7.3"/>
    <polyline class="cls-4" points="11.1 6.9 10.1 7.3 10.8 6.6"/>
  </g>
  <g class="cls-5">
    <polygon class="cls-4" points="6.9 10 6.2 10.8 6.5 11.1 6.9 10"/>
    <polyline class="cls-4" points="5.9 10.5 6.9 10 6.2 10.8"/>
  </g>
  <g class="cls-5">
    <polygon class="cls-4" points="10.1 10 10.8 10.8 10.5 11.1 10.1 10"/>
    <polyline class="cls-4" points="11.1 10.5 10.1 10 10.8 10.8"/>
  </g>
</svg>