<?xml version="1.0" encoding="UTF-8"?>
<svg id="Layer_2" data-name="Layer 2" xmlns="http://www.w3.org/2000/svg" viewBox="0 0 21.32 21.32">
  <defs>
    <style>
      .cls-1 {
        fill: #dcdcdc;
        stroke-width: 0px;
      }
    </style>
  </defs>
  <g id="Layer_1-2" data-name="Layer 1">
    <g>
      <path class="cls-1" d="M10.66,20.82C5.06,20.82.5,16.27.5,10.66S5.06.5,10.66.5s10.16,4.56,10.16,10.16-4.56,10.16-10.16,10.16Z"/>
      <path class="cls-1" d="M10.66,1c5.34,0,9.66,4.33,9.66,9.66s-4.33,9.66-9.66,9.66S1,16,1,10.66,5.33,1,10.66,1M10.66,0C4.78,0,0,4.78,0,10.66s4.78,10.66,10.66,10.66,10.66-4.78,10.66-10.66S16.54,0,10.66,0h0Z"/>
    </g>
  </g>
</svg>