<?xml version="1.0" encoding="UTF-8"?>
<svg id="Layer_2" data-name="Layer 2" xmlns="http://www.w3.org/2000/svg" viewBox="0 0 1011.61 376.92">
  <defs>
    <style>
      .cls-1 {
        fill: #dcdcdc;
        stroke-width: 0px;
      }
    </style>
  </defs>
  <g id="Layer_1-2" data-name="Layer 1">
    <g>
      <path class="cls-1" d="M322.72,143.74c-3.49,14.34-5.35,29.31-5.35,44.72s2.02,31.69,5.81,46.59l72.65-45.51-73.11-45.8Z"/>
      <path class="cls-1" d="M459.68,149.54l28.18-17.65-117.99-73.92c-6.96,7.25-13.34,15.06-19.08,23.35l108.89,68.22Z"/>
      <polygon class="cls-1" points="551.7 207.19 579.88 189.54 552.35 172.3 524.18 189.95 551.7 207.19"/>
      <path class="cls-1" d="M552.35,149.54l108.64-68.06c-5.73-8.29-12.1-16.11-19.05-23.37l-117.76,73.78,28.18,17.65Z"/>
      <path class="cls-1" d="M671.13,97.88l-100.61,63.03,27.52,17.24,85.21-53.38c-3.35-9.33-7.41-18.31-12.12-26.89Z"/>
      <path class="cls-1" d="M688.53,234.85c3.76-14.84,5.76-30.38,5.76-46.39s-1.85-30.24-5.3-44.52l-72.79,45.6,72.33,45.31Z"/>
      <path class="cls-1" d="M460.33,229.95l-108.1,67.73c5.72,8.03,12.07,15.59,18.95,22.62l116.68-73.1-27.52-17.24Z"/>
      <path class="cls-1" d="M551.7,229.95l-27.52,17.24,116.45,72.96c6.87-7.03,13.21-14.6,18.92-22.63l-107.85-67.57Z"/>
      <polygon class="cls-1" points="506.02 201.33 478.49 218.57 506.02 235.81 533.54 218.57 506.02 201.33"/>
      <path class="cls-1" d="M506.01,120.51l121.38-76.05C594.58,16.73,552.16,0,505.83,0s-88.61,16.68-121.41,44.33l121.59,76.18Z"/>
      <polygon class="cls-1" points="506.02 178.57 534.19 160.92 506.02 143.27 477.84 160.92 506.02 178.57"/>
      <path class="cls-1" d="M506.02,258.57l-120.13,75.26c32.59,26.92,74.38,43.09,119.94,43.09s87.49-16.23,120.1-43.22l-119.92-75.13Z"/>
      <path class="cls-1" d="M598.04,200.92l-28.18,17.65,100.03,62.67c4.93-8.71,9.2-17.84,12.71-27.34l-84.57-52.98Z"/>
      <path class="cls-1" d="M442.17,218.57l-28.18-17.65-84.87,53.17c3.53,9.49,7.8,18.62,12.74,27.32l100.31-62.84Z"/>
      <polygon class="cls-1" points="460.33 207.19 487.85 189.95 459.68 172.3 432.15 189.54 460.33 207.19"/>
      <path class="cls-1" d="M413.99,178.16l27.52-17.24-100.89-63.21c-4.72,8.57-8.79,17.55-12.15,26.88l85.51,53.57Z"/>
    </g>
    <g>
      <circle class="cls-1" cx="259.47" cy="239.34" r="10.02"/>
      <circle class="cls-1" cx="259.32" cy="137.38" r="10.02" transform="translate(-18.66 43.31) rotate(-9.22)"/>
      <path class="cls-1" d="M357.27,333.73c-36.64-37.47-59.24-88.73-59.24-145.27s22.06-106.59,57.94-143.94H0l30.29,54.85c9.35,16.86,27.29,28.3,47.92,28.39h157.69c3.79-9.21,12.85-15.7,23.42-15.7,13.98,0,25.32,11.34,25.32,25.32s-11.34,25.32-25.32,25.32c-10.58,0-19.63-6.49-23.42-15.7H56.59l29.66,53.71h.05c9.3,17.23,27.51,28.94,48.46,28.95h101.3c3.8-9.18,12.84-15.64,23.4-15.64,13.98,0,25.32,11.34,25.32,25.32s-11.34,25.32-25.32,25.32c-10.6,0-19.68-6.52-23.45-15.76h-123.15l30.86,55.88h.05c9.3,17.23,27.51,28.94,48.46,28.95h0s165.03,0,165.03,0Z"/>
      <path class="cls-1" d="M819.6,333.73c20.15-.06,37.74-10.95,47.28-27.15l31.76-57.51h-121.34c-3.78,9.22-12.85,15.71-23.43,15.71-13.98,0-25.32-11.34-25.32-25.32s11.34-25.32,25.32-25.32c10.57,0,19.63,6.48,23.42,15.69h99.87c19.73-.11,36.99-10.6,46.62-26.29l32.24-58.37h-178.88c-3.77,9.25-12.85,15.77-23.45,15.77-13.98,0-25.32-11.34-25.32-25.32s11.34-25.32,25.32-25.32c10.55,0,19.59,6.46,23.4,15.63h157.36c20.74-.1,38.76-11.68,48.05-28.7l29.11-52.72h-355.92c35.88,37.34,57.94,88.06,57.94,143.94s-22.6,107.81-59.24,145.27h165.21Z"/>
      <circle class="cls-1" cx="753.68" cy="135.63" r="10.02" transform="translate(339.96 780.04) rotate(-67.5)"/>
      <circle class="cls-1" cx="753.87" cy="239.47" r="10.02"/>
    </g>
  </g>
</svg>