<?xml version="1.0" encoding="UTF-8"?>
<svg id="Layer_2" data-name="Layer 2" xmlns="http://www.w3.org/2000/svg" viewBox="0 0 103.66 92.15">
  <defs>
    <style>
      .cls-1 {
        fill: none;
        stroke: #dcdcdc;
        stroke-miterlimit: 10;
        stroke-width: 1px;
      }
    </style>
  </defs>
  <g id="Layer_1-2" data-name="Layer 1-2">
    <path class="cls-1" d="M.13,38.91l4.84,5.13,7.61-7.17c-.61,2.97-.94,6.05-.94,9.21,0,25.38,20.57,45.95,45.95,45.95s45.95-20.57,45.95-45.95c0-25.38-20.57-45.95-45.95-45.95-7.73,0-15.01,1.92-21.4,5.29l3.47,6.6c5.36-2.82,11.45-4.43,17.93-4.43,21.26,0,38.49,17.23,38.49,38.49,0,21.26-17.25,38.5-38.51,38.5-21.26,0-38.49-17.23-38.49-38.49,0-2.94.34-5.79.96-8.54l4.55,10.55,6.48-2.79-10.83-25.61L.13,38.9h0Z"/>
    <path class="cls-1" d="M46.46,62.21v.35c0,.54,0,1.14,0,1.78h-.25c-.04-.27-.19-.42-.47-.43-.91-.04-1.81-.08-2.72-.09-.32-.01-.64.06-.96.1-.34.04-.47.2-.5.55-.05.63-.16,7.53-.16,7.53,0,.63.51,1.14,1.14,1.14h4.05c.04,2.24.08,3.85.08,3.81.09-.01.19-.01.28-.01,7.07,0,14.15,0,21.22,0h.47c0-1.28,0-2.54,0-3.79h3.9c.63,0,1.14-.51,1.14-1.14,0,0-.06-6.91-.11-7.51-.02-.35-.17-.49-.52-.53-.99-.12-1.98-.15-2.97-.06-.23.02-.47.06-.7.06-.26.01-.39.16-.44.37h-.26v-1.74c0-.1,0-.21,0-.34h.3c1.51,0,3.01,0,4.52,0,.24,0,.33-.06.33-.32,0-6.95,0-13.91,0-20.86,0-.09-.01-.17-.01-.29h-.3c-1.17,0-2.33,0-3.5,0-.2,0-.29-.04-.35-.24-.19-.64-.53-1.2-.96-1.7-.06-.08-.21-.11-.32-.11h-4.34s-.31,0-.31,0c-.09-.79-.18-1.56-.27-2.33-.02-.26-.05-.52-.08-.78h5.09v.2c.12.01.23.02.37.02.01.09.02.19.02.28,0,.71-.02,1.42,0,2.13.01.21.07.43.15.62.04.09.19.2.3.2.9.05,1.79.09,2.69.1.38,0,.76-.06,1.14-.1.23-.03.38-.34.42-.7.19-1.69.06-3.39.1-5.08,0-.22.02-.45,0-.68-.04-.56-.08-1.12-.16-1.67-.02-.12-.19-.28-.32-.31-.35-.08-.72-.11-1.08-.12-.53-.02-1.07-.02-1.61,0-.41.01-.82.05-1.22.1-.2.02-.34.16-.36.36-.02.24-.02.49-.02.73,0,.67,0,1.35-.03,2.02-.01.27-.25.06-.38.14v.08h-5.25c0-.22,0-.43-.03-.64-.05-.58-.13-1.15-.19-1.73-.05-.51-.11-1.02-.16-1.53-.05-.52-.11-1.04-.16-1.56h4.76c.15.02.31.02.46.02.02,0,.06-.02.06-.02h5.79s0-12.8,0-12.8h-.71c-.01.09-.02.19-.03.31-.15.01-.31.03-.47.03h-3.13c-2.25,0-4.49,0-6.74,0h-2.08s-1.27-.94-1.67-.94h-2.76c-.14,0-.41.12-.68.28h0l-.09.05s-.12.07-.12.07l-.85.51c-.54-.01-1.07-.02-1.6-.02-1.58.01-3.17.04-4.75.04h-4.98s-1,0-1,0c0-.13-.02-.23-.03-.35h-.73s0,12.4,0,12.4c0,.27.14.41.42.41h.3s5.09-.01,5.09-.01h.26s5,0,5,0c-.19,1.82-.37,3.63-.56,5.46h-5.22v-.15s-.33,0-.33,0c-.02-.03-.04-.05-.04-.07-.01-.72-.01-1.43-.02-2.15-.01-.23-.01-.46-.04-.68-.03-.19-.16-.33-.35-.35-.37-.05-.74-.1-1.11-.11-.55-.02-1.09-.02-1.64,0-.38.01-.77.05-1.16.1-.23.03-.36.22-.39.54-.2,2.13-.07,4.27-.09,6.41,0,.43.13.85.23,1.27.03.1.19.23.3.23.95.05,1.91.08,2.87.1.32,0,.64-.05.96-.09.27-.04.37-.27.39-.49.03-.45.03-.89.03-1.34v-1.42c.15-.01.26-.02.39-.02v-.15h5.05c-.11,1.04-.21,2.07-.32,3.11h-.27c-1.44,0-2.87,0-4.31,0-.21,0-.35.04-.48.22-.37.5-.69,1.01-.86,1.6-.06.19-.15.24-.34.24h-3.55s-.27,0-.27,0v.32c0,6.93,0,13.85,0,20.78,0,.25.07.31.31.31h4.52s.32,0,.32,0v.07Z"/>
  </g>
</svg>