<?xml version="1.0" encoding="UTF-8"?>
<svg id="Layer_2" data-name="Layer 2" xmlns="http://www.w3.org/2000/svg" viewBox="0 0 103.66 92.15">
  <defs>
    <style>
      .cls-1 {
        fill: none;
        stroke: #dcdcdc;
        stroke-miterlimit: 10;
        stroke-width: 1px;
      }
    </style>
  </defs>
  <g id="Layer_1-2" data-name="Layer 1-2">
    <path class="cls-1" d="M103.54,38.9l-20.11-19.2-10.83,25.61,6.48,2.79,4.55-10.55c.62,2.75.96,5.6.96,8.54,0,21.26-17.23,38.49-38.49,38.49S7.59,67.33,7.59,46.08,24.82,7.59,46.08,7.59c6.48,0,12.57,1.61,17.93,4.43l3.47-6.6C61.08,2.05,53.81.12,46.08.12,20.69.12.12,20.69.12,46.08s20.57,45.95,45.95,45.95,45.95-20.57,45.95-45.95c0-3.16-.33-6.24-.94-9.21l7.61,7.17,4.84-5.13h0Z"/>
    <path class="cls-1" d="M57.21,62.13h4.84c.24,0,.31-.06.31-.31v-21.1h-3.82c-.19,0-.28-.05-.34-.24-.17-.59-.49-1.1-.86-1.6-.13-.18-.27-.22-.48-.22h-4.58c-.11-1.04-.21-2.07-.32-3.11h5.05v.15c.13,0,.24,0,.39.02v1.42c0,.45,0,.89.03,1.34.02.22.12.45.39.49.32.04.64.1.96.09.96-.02,1.92-.05,2.87-.1.11,0,.27-.13.3-.23.1-.42.23-.84.23-1.27-.02-2.14.11-4.28-.09-6.41-.03-.32-.16-.51-.39-.54-.39-.05-.78-.09-1.16-.1-.55-.02-1.09-.02-1.64,0-.37.01-.74.06-1.11.11-.19.02-.32.16-.35.35-.03.22-.03.45-.04.68,0,.72,0,1.43-.02,2.15,0,.02-.02.04-.04.07h-.33v.15h-5.22c-.19-1.83-.37-3.64-.56-5.46h10.35s.3.01.3.01c.28,0,.42-.14.42-.41v-12.4h-.73c0,.12-.02.22-.03.35h-5.98c-1.58,0-3.17-.03-4.75-.04-.53,0-1.06.01-1.6.02l-.85-.51s-.08-.05-.12-.07l-.09-.05h0c-.27-.16-.54-.28-.68-.28h-2.76c-.4,0-1.67.94-1.67.94h-11.95c-.16,0-.32-.02-.47-.03-.01-.12-.02-.22-.03-.31h-.71v12.8h5.79s.04.02.06.02c.15,0,.31,0,.46-.02h4.76c-.05.52-.11,1.04-.16,1.56-.05.51-.11,1.02-.16,1.53-.06.58-.14,1.15-.19,1.73-.02.21-.02.42-.03.64h-5.25v-.08c-.13-.08-.37.13-.38-.14-.03-.67-.02-1.35-.03-2.02,0-.24,0-.49-.02-.73-.02-.2-.16-.34-.36-.36-.4-.05-.81-.09-1.22-.1-.54-.02-1.08-.02-1.61,0-.36.01-.73.04-1.08.12-.13.03-.3.19-.32.31-.08.55-.12,1.11-.16,1.67-.02.23,0,.46,0,.68.04,1.69-.09,3.39.1,5.08.04.36.19.67.42.7.38.04.76.1,1.14.1.9,0,1.79-.05,2.69-.1.11,0,.26-.11.3-.2.08-.19.14-.41.15-.62.02-.71,0-1.42,0-2.13,0-.09,0-.19.02-.28.14,0,.25,0,.37-.02v-.2h5.09c-.03.26-.06.52-.08.78-.09.77-.18,1.54-.27,2.33h-4.65c-.11,0-.26.03-.32.11-.43.5-.77,1.06-.96,1.7-.06.2-.15.25-.35.24h-3.8c0,.12-.01.2-.01.29v20.86c0,.26.09.32.33.32h4.82v2.08h-.26c-.05-.21-.18-.36-.44-.37-.23,0-.47-.04-.7-.06-.99-.09-1.98-.06-2.97.06-.35.04-.5.18-.52.53-.05.6-.11,7.51-.11,7.51,0,.63.51,1.14,1.14,1.14h3.9c0,1.25,0,2.51,0,3.79h21.69c.09,0,.19,0,.28.01,0,.04.04-1.57.08-3.81h4.05c.63,0,1.14-.51,1.14-1.14,0,0-.11-6.9-.16-7.53-.03-.35-.16-.51-.5-.55-.32-.04-.64-.11-.96-.1-.91,0-1.81.05-2.72.09-.28.01-.43.16-.47.43h-.25v-2.2Z"/>
  </g>
</svg>