<?xml version="1.0" encoding="UTF-8"?>
<svg id="Layer_2" data-name="Layer 2" xmlns="http://www.w3.org/2000/svg" version="1.1" viewBox="0 0 69.1 69.1">
  <defs>
    <style>
      .cls-1, .cls-2 {
        fill: none;
        stroke: #f13030;
        stroke-width: 2px;
      }

      .cls-2 {
        stroke-miterlimit: 10;
      }
      .cls-3 {
        fill: none;
        stroke: #f13030;
        stroke-width: 1px;
      }
    </style>
  </defs>
  <g id="Layer_1-2" data-name="Layer 1-2">
    <path class="cls-1" d="M34.6,4.9c16.4,0,29.6,13.3,29.6,29.6s-13.3,29.6-29.6,29.6S4.9,50.9,4.9,34.6,18.2,4.9,34.6,4.9M34.6,3.9C17.7,3.9,3.9,17.7,3.9,34.6s13.7,30.6,30.6,30.6,30.6-13.7,30.6-30.6S51.4,3.9,34.6,3.9h0Z"/>
    <path class="cls-2" d="M20.4,25.1h-4.3c-.8,0-1.4.6-1.4,1.4v17.1c0,.8.6,1.4,1.4,1.4h4.2l15,10.2V13.9s-14.9,11.2-14.9,11.2Z"/>
    <g id="fdtSYT.tif">
      <path class="cls-3" d="M41.5,28c.8.9,1.4,1.9,1.8,3,.4,1.1.7,2.3.7,3.5,0,2.5-.8,4.8-2.5,6.6l-1.7-1.7c.5-.6.9-1.2,1.2-2,.6-1.5.7-3,.4-4.5-.2-1.1-.8-2.1-1.5-3l1.5-1.9M38.6,29.9l.5.6c.7.9,1.1,1.7,1.3,2.6.3,1.4.2,2.7-.3,3.9-.3.6-.7,1.2-1.1,1.7l-.5.7.6.6,1.7,1.7.8.8.7-.8c1.8-1.9,2.7-4.4,2.7-7.2,0-1.3-.2-2.5-.7-3.9-.5-1.3-1.2-2.4-2-3.4l-.8-.9h0l-2.8,3.5Z"/>
    </g>
    <path class="cls-3" d="M48.2,22.3s2.8,2.9,4,5.9c.8,2,1.2,4.1,1.2,6.2,0,4.6-1.5,8.5-4.4,11.8h0s-2.2-2.8-2.2-2.8c0,0,2.1-2.8,2.7-4.2,1.1-2.6,1.2-5.3.6-8-.6-3-3.7-6.8-3.7-6.8l1.8-2.2M45.1,24.5l.5.6s2.9,3.6,3.5,6.3c.6,2.7.4,5.1-.6,7.4-.4,1-2,3.2-2.5,4l-.5.6,3.4,4.3.8-.9c3-3.3,4.6-7.5,4.7-12.5,0-2.5-.4-4.7-1.3-6.7-1.3-3.1-4.9-6.9-5-7.1l-3,3.8Z"/>
  </g>
</svg>